<svg xmlns="http://www.w3.org/2000/svg" viewBox="0 0 500 500"><g id="freepik--background-simple--inject-129"><g><path d="M178.35,66.81c-25.29,3.77-49.67,11.78-71.3,24.36-25.49,14.82-51.53,37.91-43.84,68.11,14.2,55.75,82.33,56.77,68.72,94.25-15.41,42.46-5.07,92.27,64.06,106.12,131.31,26.31,290.05-127.62,245.47-212.2-27.76-52.66-128.85-100.62-263.12-80.63Z" style="fill:#90CAF9;"></path><path d="M178.35,66.81c-25.29,3.77-49.67,11.78-71.3,24.36-25.49,14.82-51.53,37.91-43.84,68.11,14.2,55.75,82.33,56.77,68.72,94.25-15.41,42.46-5.07,92.27,64.06,106.12,131.31,26.31,290.05-127.62,245.47-212.2-27.76-52.66-128.85-100.62-263.12-80.63Z" style="fill:#fff; opacity:.9;"></path></g></g><g id="freepik--Shadow--inject-129"><path d="M458.05,461.12c0,3.39-93.52,6.13-208.87,6.13s-208.87-2.75-208.87-6.13,93.52-6.13,208.87-6.13,208.87,2.75,208.87,6.13Z" style="fill:#f5f5f5;"></path></g><g id="freepik--Speech_Bubble--inject-129"><g><g><g><path d="M391.54,76.23c-11.75,4.69-17.47,18.02-12.78,29.77,4.69,11.75,18.02,17.47,29.77,12.78,11.75-4.69,17.47-18.02,12.78-29.77-4.69-11.75-18.02-17.47-29.77-12.78Z" style="fill:#90CAF9;"></path><path d="M384.95,107.24l-1.18,5.78-5.66,.09c-.85,.01-1.45-.84-1.15-1.64l1.97-5.17,6.02,.94Z" style="fill:#90CAF9;"></path></g><path d="M377.55,85.75s-.07,0-.1-.02c-.13-.06-.18-.2-.13-.33,3.05-6.86,9.81-12.01,17.23-13.13,.15-.02,.26,.07,.28,.21s-.07,.26-.21,.28c-7.25,1.1-13.87,6.14-16.84,12.84-.04,.09-.13,.15-.23,.15Z" style="fill:#90CAF9;"></path><path d="M375.32,92.16h-.02c-.14-.01-.24-.13-.23-.27,.09-1.16,.43-2.32,.98-3.35,.07-.12,.22-.17,.34-.1,.12,.07,.17,.22,.1,.34-.52,.97-.84,2.06-.93,3.15,0,.13-.12,.23-.25,.23Z" style="fill:#90CAF9;"></path></g><g><g><rect x="389.51" y="91.3" width="21" height="13.94" rx="1.11" ry="1.11" style="fill:#fff;"></rect><path d="M404.82,97.94c0,2.67-2.17,4.84-4.84,4.84s-4.84-2.17-4.84-4.84,2.17-4.84,4.84-4.84,4.84,2.17,4.84,4.84Z" style="fill:#90CAF9;"></path><path d="M395.11,91.36l1.11-1.48c.1-.13,.24-.2,.4-.2h6.66c.16,0,.3,.07,.4,.2l1.15,1.48c.26,.33,.02,.81-.4,.81h-8.91c-.42,0-.65-.47-.4-.8Z" style="fill:#fff;"></path><circle cx="399.98" cy="97.94" r="3.81" style="fill:#fff;"></circle></g><path d="M403.09,97.94c0,1.72-1.4,3.12-3.12,3.12s-3.12-1.4-3.12-3.12,1.4-3.12,3.12-3.12,3.12,1.4,3.12,3.12Z" style="fill:#90CAF9;"></path><rect x="405.21" y="89.67" width="3.68" height="1" style="fill:#fff;"></rect></g></g></g><g id="freepik--Characters--inject-129"><g><g><path d="M195.93,140.12c-.21-1.4-1.2-2.6-2.38-3.39-1.18-.79-2.55-1.23-3.91-1.66-4.27-1.33-8.57-2.55-12.88-3.76-5.61-1.58-11.29-3.18-17.11-3.27-2.24-.04-4.57,.18-6.52,1.29-2.84,1.62-4.39,4.93-4.65,8.19-.26,3.26,.58,6.49,1.56,9.61l-.12,2.41c13.35,1.95,27.31,2.06,39.94-2.68,1.54-.58,3.08-1.24,4.28-2.36,1.21-1.11,2.03-2.76,1.79-4.38Z" style="fill:#90CAF9;"></path><path d="M203.29,141.73s8.24-.99,12.97,6.11c4.74,7.1,16.62,28.66,16.62,28.66l35.23-1.86,3.46,18.32s-31.87,9.51-43.52,5.98-21.27-24.11-21.27-24.11l-3.49-33.11Z" style="fill:#90CAF9;"></path><path d="M151.34,143.19s-11.67,1.02-15.38,17.18c-2.7,11.77-9.79,36.46-9.79,36.46l-21.45,22.4,3.56,11.67s28.48-15.63,31.56-19.59c3.08-3.96,12.06-25.99,12.06-25.99l-.56-42.12Z" style="fill:#90CAF9;"></path><g><polygon points="210.9 419.24 208.07 445.5 216.71 446.8 225.8 422.13 210.9 419.24" style="fill:#263238;"></polygon><g><path d="M223.57,440.37c.14-1.6,.03-2.94-1.69-3.04l-2.44-.14c-.92,0-1.58,.61-2.32,1.13-5.58,3.88-7.87-1.13-10.04-1.13-2.78,0-.99,8.89-1.12,9.36l-3.04,10.32c-.26,.86,.27,2.72,1.19,2.97,.16,.04,.33,.06,.51,.06h32.24c5.13,0,5.19-6.28,3.07-6.72-9.5-1.96-13.24-5.06-16.37-7.34,0,0-.2-3.02,0-5.48Z" style="fill:#90CAF9;"></path><path d="M236.87,459.92h-32.24c-.17,0-.34-.02-.51-.06-.63-.17-1.07-1.08-1.21-1.92v-.79h38.06c-.51,1.46-1.78,2.76-4.12,2.76Z" style="fill:#fff; opacity:.4;"></path><path d="M228.04,449.07c-.82,.76-1.51,1.67-2.01,2.68-.09,.18-.05,.41,.13,.51,.17,.1,.42,.05,.51-.13,.48-.96,1.1-1.8,1.89-2.52,.15-.14,.14-.39,0-.53-.15-.15-.38-.14-.53,0h0Z" style="fill:#263238;"></path><path d="M225.08,447.27c-.76,.72-1.4,1.57-1.9,2.49-.09,.17-.05,.42,.13,.51s.41,.05,.51-.13c.48-.89,1.05-1.64,1.78-2.33,.15-.14,.14-.39,0-.53s-.38-.14-.53,0h0Z" style="fill:#263238;"></path><path d="M223.05,445.65c-.76,.42-1.4,1.08-1.77,1.86-.08,.18-.05,.41,.13,.51,.17,.09,.42,.05,.51-.13s.19-.35,.3-.52c.03-.04,.05-.07,.08-.11,0-.01,.06-.09,0-.01,.01-.02,.03-.04,.04-.05,.06-.08,.13-.15,.2-.23s.13-.14,.2-.2c.04-.03,.07-.07,.11-.1,.02-.02,.11-.06,.12-.09-.01,.03-.05,.04,0,0l.06-.04s.09-.06,.13-.09c.08-.05,.17-.11,.26-.15,.17-.09,.24-.35,.13-.51s-.33-.24-.51-.13h0Z" style="fill:#263238;"></path><path d="M223.24,442.32c-.9,.01-1.79,.19-2.62,.53-.19,.08-.32,.25-.26,.46,.05,.18,.27,.34,.46,.26,.78-.33,1.59-.5,2.42-.51,.2,0,.38-.17,.38-.38s-.17-.38-.38-.38h0Z" style="fill:#263238;"></path><g style="opacity:.3;"><path d="M214.16,443.48c-.05,.92-.37,1.93-1.19,2.36-.51,.27-1.11,.26-1.68,.24-1.71-.05-3.42-.1-5.13-.15l-.02-.05c-.27-2.43-.99-8.36,1.13-8.36,1.67,0,3.42,3.4,6.91,2.41-.03,1.29,.02,2.93-.01,3.55Z"></path></g></g></g><g><path d="M154.46,236.54l37.97,1.17,24.68,.65s19.41,80.58,20.95,95.76c1.54,15.18-10.71,102.37-10.71,102.37l-22.52-1.45s5.1-86.73,3.46-94.94c-1.43-7.16-17.29-53.06-21.34-64.73-.41,2.39-.83,4.79-1.25,7.17-1.02,10.76-4.31,45.07-5.74,57.84,0,0-3.11,72.93-5.48,95.52l-18.89,.03c-3.73-31.47-5.33-137.08-5.33-137.08h0c-1.4-22.94,4.2-62.32,4.2-62.32Z" style="fill:#263238;"></path><g style="opacity:.5;"><path d="M206.17,242.63c2.21,7.75,8.13,13.98,15.43,16.24,.39,.12,.23,.78-.17,.66-7.52-2.33-13.6-8.74-15.88-16.72-.12-.42,.5-.6,.62-.18h0Z"></path><path d="M186.29,242.63c.43,6.78,.85,13.57,1.28,20.35,.02,.44,.66,.44,.64,0-.23-3.48-.44-6.97-.66-10.46,1.57,1.29,3.41-.27,3.92-2,.84-2.8,.52-6.12-.13-8.92-.1-.43-.72-.24-.62,.17,.46,1.97,.66,3.98,.52,6-.06,1.03-.15,2.21-.61,3.15-.5,1.05-1.78,1.94-2.79,.98-.11-.1-.24-.11-.34-.05-.19-3.07-.39-6.16-.59-9.23-.02-.44-.66-.44-.64,0Z"></path><path d="M167.57,243.78c.09,8.99-6.41,16.52-14.81,17.22-.4,.03-.4-.63,0-.67,8.06-.68,14.26-7.95,14.18-16.56,0-.43,.62-.43,.63,0h0Z"></path><path d="M160.63,343.6c-2.83,1.08-5.88,1.1-8.72,.05-.41-.15-.23-.83,.18-.68,2.74,1.01,5.63,.99,8.36-.05,.41-.16,.59,.52,.18,.68h0Z"></path></g></g><g><path d="M215.86,227.45l-5.94-65.3-6.63-20.42c-5.77-.36-28.98-3.15-52.53,1.58l.17,90.43s-3.65,6.54,3.81,6.15c30.99,3.33,61.29-1.53,61.29-1.53,3.33-1.11,3.33-5.47-.16-10.91Z" style="fill:#90CAF9;"></path></g><g><polygon points="173.7 421.08 170.03 448.03 161.25 448.47 158.41 422.49 173.7 421.08" style="fill:#263238;"></polygon><path d="M153.77,460.54h19.64s.43-.83-.06-3.02c-.07-.34-.17-.72-.3-1.13,0-.02-.01-.04-.02-.06-.18-.61-.39-1.36-.62-2.16-.9-3.29-1.51-10.85-1.51-10.85,0,0-3.71-3.73-7.54-1.98-3.35,1.53-2.83,3.47-2.83,3.47,0,0-.05,5.02-2.6,7.29-1.57,1.4-3.14,2.49-3.89,4.23-.14,.33-.25,.67-.33,1.05,0,.05-.02,.09-.02,.14-.16,.84-.15,1.83,.08,3.02Z" style="fill:#90CAF9;"></path><g style="opacity:.4;"><path d="M173.35,457.52c.49,2.2,.06,3.02,.06,3.02h-19.64c-.23-1.19-.24-2.18-.08-3.02h19.66Z" style="fill:#fff;"></path></g><path d="M161.6,448.35c1.1-.86,2.55-.75,3.55,.22,.27,.26,.68-.15,.41-.41-1.24-1.21-3.01-1.28-4.37-.22-.29,.23,.12,.64,.41,.41h0Z" style="fill:#263238;"></path><path d="M161.05,450.18c1.1-.86,2.55-.75,3.55,.22,.27,.26,.68-.15,.41-.41-1.24-1.21-3.01-1.28-4.37-.22-.29,.23,.12,.64,.41,.41h0Z" style="fill:#263238;"></path><path d="M160.49,451.87c1.1-.86,2.55-.75,3.55,.22,.27,.26,.68-.15,.41-.41-1.24-1.21-3.01-1.28-4.37-.22-.29,.23,.12,.64,.41,.41h0Z" style="fill:#263238;"></path></g><g><path d="M211.41,188.89s-6.65,3.15-7.24,5.09c-.59,1.94,2.25,1.4,2.25,1.4,0,0-3.09,.79-2.94,2.15,.19,1.63,3.16,1.05,3.16,1.05,0,0-2.5,.75-2.28,1.94,.23,1.24,3.63,.83,3.63,.83,0,0-1.66,.86-1.03,1.6,.62,.75,7.87,0,9.8-1.64,1.93-1.65,.69-10.93-.05-12.88-.24-.62-.87-1.65-4.47-2.07l-.64,2.43-.2,.1Z" style="fill:#b97964;"></path><path d="M206.45,195.52h.01l5.33-1.63c.07-.02,.11-.11,.09-.19-.02-.08-.1-.13-.17-.11l-5.33,1.63c-.07,.02-.11,.11-.09,.19,.02,.08,.09,.12,.16,.11Z" style="opacity:.2;"></path><path d="M206.83,198.69h0l5.24-1.16c.07-.02,.12-.1,.1-.18-.02-.08-.08-.13-.16-.12l-5.24,1.16c-.07,.02-.12,.1-.1,.18,.02,.08,.09,.14,.16,.12Z" style="opacity:.2;"></path><path d="M208.21,201.46l3.92-.75c.07-.01,.12-.09,.1-.18s-.09-.14-.16-.13l-3.92,.75c-.07,.01-.12,.09-.1,.18,.02,.08,.09,.14,.16,.13Z" style="opacity:.2;"></path></g><g><g><g><g><path d="M167.5,140.52s2.62-8-1.7-19.93c1.38-.92-1.06-3.7-1.18-4.94l17.29,9.2c-.14,3.91,1.74,11.33,2.78,14.45l-5.15,6.35-12.04-5.14Z" style="fill:#ebb373;"></path><path d="M182.55,130.3l-9.71-1.54c1.06,2.92,3.92,6.28,10.6,6.13,0,0-.88-3.29-.89-4.6Z" style="opacity:.2;"></path></g><g><path d="M192.83,94.52c2.21,3.72,1.81,13.31-4.43,11.94-6.24-1.37,.64-18.34,4.43-11.94Z" style="fill:#263238;"></path><path d="M163.97,107.59c1.8,10.47,2.61,16.41,8.53,21.18,25.51,15.77,30.49-31.65,9.76-37.94-10.63-2.92-20.1,6.28-18.3,16.75Z" style="fill:#ebb373;"></path><path d="M157.98,93.69c3.05-9.39,18.62-6.25,23.01-3.73,.66,.38-7.49,5.65-6.99,5.41l-3.91,1.85c-5.34,1.66,2.19,11.09-3.5,18.98-9.15-2.8-10.53-15.6-8.61-22.5Z" style="fill:#263238;"></path><path d="M160.77,116.83c1.85,5.51,11.44,8.51,10.22,.28-.71-8-12.61-9.97-10.22-.28Z" style="fill:#ebb373;"></path><path d="M178.09,108.98c.26,2.55,2.86,2.21,2.55-.31-.26-2.55-2.86-2.21-2.55,.31Z" style="fill:#263238;"></path><path d="M188.99,108.03c.26,2.55,2.86,2.21,2.55-.31-.26-2.55-2.86-2.21-2.55,.31Z" style="fill:#263238;"></path><path d="M186.48,107.81s4,4.98,5.34,7.05c-1.35,1.52-4.01,1.18-4.01,1.18l-1.33-8.23Z" style="fill:#e4873e;"></path><path d="M176.2,104.18c.17,.05,.36,0,.5-.13,1.63-1.59,3.46-1.21,3.48-1.21,2.22-.98-1.89-1.97-4.19,.49-.28,.26-.16,.75,.21,.85Z" style="fill:#263238;"></path></g><path d="M168.02,116.53c-.12,0-.23-.09-.25-.21-.19-1.38-1.57-2.98-2.82-3.29-.75-.18-1.38,.07-1.88,.77-.08,.11-.24,.14-.35,.06-.11-.08-.14-.24-.06-.35,.61-.85,1.47-1.19,2.41-.96,1.45,.36,2.98,2.12,3.2,3.7,.02,.14-.08,.26-.21,.28-.01,0-.02,0-.04,0Z" style="opacity:.2;"></path></g><path d="M194.16,102.96c.37-.11,.47-.65,.16-.89-2.2-1.74-4.41-.98-4.51-.96-.62,.2-.3,1.18,.32,.97,.34-.38,2.28-.01,4.04,.88Z" style="fill:#263238;"></path></g><path d="M159.41,109.78s8.63-8.74,17.89-11.92c10.25-3.52,16.87-.83,16.87-.83,0,0,1.88-1.3,.99-2.37-.88-1.07-1.98-.45-1.98-.45,0,0-8.25-12.44-20.85-11.05-12.6,1.39-17.87,8.13-17.47,8.75,2.01,3.16,4.15-.85,4.15-.85,0,0-3.58,3.4-1.57,11.94l.47,3.29s-1.44,3.5,1.5,3.5Z" style="fill:#263238;"></path><path d="M159.41,109.78s8.63-8.74,17.89-11.92c10.25-3.52,16.87-.83,16.87-.83,0,0,1.88-1.3,.99-2.37-.88-1.07-1.98-.45-1.98-.45,0,0-8.25-12.44-20.85-11.05-12.6,1.39-17.87,8.13-17.47,8.75,2.01,3.16,4.15-.85,4.15-.85,0,0-3.58,3.4-1.57,11.94l.47,3.29s-1.44,3.5,1.5,3.5Z" style="fill:#fff; opacity:.7;"></path><path d="M177.57,97.45c1.36-.22,2.53-1.34,2.8-2.69,.18-.89,0-1.8-.08-2.7-.08-.9-.04-1.88,.5-2.6,.46-.62,1.27-.96,2.04-.86s1.46,.64,1.74,1.36c-.19-.58,.12-1.24,.6-1.63s1.09-.57,1.68-.75c1.06-.31,2.25-.62,3.25-.12,1,.49,1.48,1.64,1.67,2.74,.25,1.41,.12,2.92-.59,4.17-.94,1.67-2.8,2.65-4.69,3-1.88,.34-3.82,.13-5.72-.08" style="fill:#263238;"></path><path d="M158.51,91.69s2.14-4.33,8.17-5.66l-8.17,5.66Z" style="opacity:.2;"></path><path d="M158.62,106.21l-.2-.15c4.55-6.12,12.83-11.67,20.61-13.81l.07,.24c-7.73,2.13-15.96,7.64-20.47,13.72Z" style="opacity:.3;"></path><g><path d="M186.38,119.64c-.96,1.17-1.83,2.42-2.61,3.72-.25-.1-.5-.19-.74-.3-3.36-1.37-4.47-3.11-4.66-4.64-.08-.75,.01-1.5,.28-2.2,.14-.4,.33-.78,.58-1.12,1.34,1.79,4.37,3.31,6.02,4.06,.73,.29,1.13,.49,1.13,.49Z" style="fill:#263238;"></path><path d="M185.28,119.13l-.8,1.08c-3.15-1.3-5.19-2.63-5.8-4.01,.14-.4,.33-.78,.58-1.12,1.35,1.81,4.37,3.31,6.02,4.06Z" style="fill:#fff;"></path><path d="M183.07,123.04c-3.36-1.37-4.47-3.11-4.66-4.64,1.27,.55,2.42,1.31,3.42,2.26,.65,.64,1.08,1.48,1.23,2.38Z" style="fill:#c15854;"></path></g></g><path d="M159.72,223.18c6.64-2.82,10.93-10.1,10.19-17.28-.05-.48-.8-.48-.75,0,.71,6.94-3.4,13.9-9.82,16.63-.44,.19-.06,.83,.38,.65h0Z" style="opacity:.3;"></path><path d="M198.34,205.48c-.16,7.24,3.61,14.26,9.72,18.14,.41,.26,.79-.39,.38-.65-5.89-3.74-9.5-10.52-9.35-17.49,.01-.48-.74-.48-.75,0h0Z" style="opacity:.3;"></path><path d="M212.38,184.59s-2.74-28.91-2.8-28.67c-.06,.24,3.41,11.42,3.84,18.73s-1.04,9.94-1.04,9.94Z" style="isolation:isolate; opacity:.2;"></path><g style="isolation:isolate; opacity:.2;"><path d="M149.2,143.64l.34,1.01c1.21,3.9,4.73,6.99,8.76,7.68,1.72,.3,4.82,.12,4.82,.12-5.45-.09-10.79-4.34-13.93-8.81Z"></path></g><path d="M195.98,141.03s.41,2.48-3.76,6.05c0,0,4.09-1.04,3.76-6.05Z" style="isolation:isolate; opacity:.2;"></path><g><path d="M174.74,157.48c-.25,0-.5-.03-.74-.1-.59-.17-1.03-.54-1.25-1.05-.39-.89,0-1.89,.34-2.56,1.59-3.25,4.42-5.9,7.78-7.27l.06-.14,.46,.19-2.99,7.32c-.44,1.07-.98,2.39-2.09,3.15-.44,.3-1.01,.46-1.57,.46Zm5.86-10.32c-3.04,1.37-5.59,3.83-7.06,6.83-.29,.59-.63,1.44-.33,2.15,.2,.47,.62,.68,.93,.77,.62,.18,1.36,.06,1.88-.3,.99-.67,1.5-1.92,1.91-2.93l2.66-6.52Z" style="fill:#fff;"></path><path d="M187.88,156.08c-.09,0-.18,0-.27-.01-1.15-.1-2.26-.79-3.39-2.11-1.57-1.85-2.79-5.02-3.31-7.35l-.1-.45,.43,.17c2.63,1.01,6.5,3.46,8.43,5.79,.28,.34,.58,.73,.71,1.22,.19,.72-.09,1.57-.68,2.1-.48,.42-1.13,.66-1.82,.66Zm-6.37-9.12c.54,2.16,1.69,5.02,3.09,6.67,1.04,1.22,2.03,1.85,3.05,1.94,.64,.06,1.29-.14,1.72-.52,.46-.41,.68-1.05,.53-1.6-.1-.38-.36-.72-.61-1.02-1.77-2.15-5.24-4.39-7.78-5.46Z" style="fill:#fff;"></path><path d="M179.29,177.2c-.66-8.41-.93-20.54,1.49-30.55l.49,.12c-2.41,9.95-2.13,22.02-1.48,30.39l-.5,.04Z" style="fill:#fff;"></path><path d="M184.69,175.08l-.29-1.6c-1.43-7.79-3.59-19.57-3.63-26.77h.5c.03,7.15,2.19,18.9,3.62,26.68l.29,1.6-.49,.09Z" style="fill:#fff;"></path></g><g style="opacity:.3;"><path d="M183.22,235.94c8.74,.6,14.98-.81,22.79-4.78-13.36,3.44-27.64,3.74-40.9-.06,0,0,10.52,4.33,18.11,4.85Z"></path></g></g><g><g><path d="M287.01,198.54l5.69,32.29,9.32,32.51-7.01,8.03s-13.13-29.98-14.82-37.03c-1.69-7.05-4.26-31.27-4.26-31.27l11.07-4.53Z" style="fill:#eec1bb;"></path><path d="M276.09,176.26s2.32,.77,4.57,3.51c2.25,2.75,13.16,19.55,13.16,19.55l-17.12,8.03-.61-31.09Z" style="fill:#263238;"></path><path d="M282.97,204.4s.28-5.09,0-8.83c-.28-3.75-1.99-7.38-1.99-7.38,0,0,3.42,4.44,4.39,8.11,.96,3.66,1.65,6.21,1.65,6.21l-4.04,1.89Z" style="opacity:.3;"></path></g><g><polygon points="246.79 448.96 257.14 447.85 259.31 420.59 243.52 422.12 246.79 448.96" style="fill:#eec1bb;"></polygon><g><path d="M257.92,443.89h-3.7c-.84,0-1.61,.42-2.11,1.1-2.13,2.91-3.74,1.81-6.06-.93-1.48-.17-1.87,1.52-1.99,1.98l-2.77,10.06c-.24,.84,.25,1.72,1.09,1.96,.15,.04,.3,.06,.46,.06h29.32c4.66,0,5.63-4.7,3.71-5.13-8.64-1.91-14.76-4.45-17.43-6.96-.5-.44,.01-.77-.52-2.13Z" style="fill:#263238;"></path><path d="M265.95,446.75c.39-.28,.62-.73,.63-1.21,.03-.26-.08-.51-.3-.65-1.16-.82-5.79,1.34-6.31,1.59-.06,.02-.1,.07-.12,.12-.04,.11,.02,.22,.12,.26,1.14,.27,2.3,.42,3.47,.45,.88,.08,1.76-.12,2.51-.57Zm.04-1.51c.09,.06,.14,.17,.12,.28-.02,.35-.19,.67-.46,.88-1.05,.79-3.59,.45-4.95,.19,1.92-.85,4.65-1.8,5.29-1.35Z" style="fill:#90CAF9;"></path><path d="M260.13,446.92c1.39-.58,4.3-2.86,4.14-4.07-.02-.25-.21-.56-.83-.64-2.54-.29-3.62,4.26-3.62,4.46-.03,.08,0,.16,.06,.22,.05,.01,.1,.01,.14,0l.11,.04Zm3.23-4.34c.47,.05,.47,.22,.47,.28,.13,.74-1.98,2.63-3.49,3.43,.31-1.06,1.24-3.72,2.85-3.72h.17Z" style="fill:#90CAF9;"></path><path d="M257.35,449.02s-.09-.01-.13-.04c-.12-.07-.15-.23-.08-.34,.73-1.16,1.97-1.96,3.32-2.14,.15,0,.26,.08,.28,.21,.02,.14-.08,.26-.21,.28-1.21,.16-2.32,.88-2.97,1.91-.05,.08-.13,.12-.21,.12Z" style="fill:#90CAF9;"></path><path d="M259.65,450.75s-.09-.01-.13-.04c-.12-.07-.15-.23-.08-.34,.73-1.16,1.97-1.96,3.32-2.14,.15-.01,.26,.08,.28,.21,.02,.14-.08,.26-.21,.28-1.21,.16-2.32,.88-2.96,1.91-.05,.08-.13,.12-.21,.12Z" style="fill:#90CAF9;"></path><path d="M262.51,452.2s-.09-.01-.13-.04c-.12-.07-.15-.23-.08-.34,.73-1.16,1.97-1.96,3.32-2.14,.15,0,.26,.08,.28,.21,.02,.14-.08,.26-.21,.28-1.21,.17-2.32,.88-2.97,1.91-.05,.08-.13,.12-.21,.12Z" style="fill:#90CAF9;"></path></g><polygon points="258.28 435.96 257.77 439.95 245.69 439.95 245.37 437.32 258.28 435.96" style="opacity:.3;"></polygon></g><g><polygon points="290.71 449.21 301.07 448.1 303.24 420.84 287.45 422.37 290.71 449.21" style="fill:#eec1bb;"></polygon><g><path d="M302.14,444.09h-3.7c-.84,0-1.61,.42-2.11,1.1-2.13,2.91-3.74,1.81-6.06-.93-1.48-.17-1.87,1.52-1.99,1.98l-2.77,10.06c-.24,.84,.25,1.72,1.09,1.96,.15,.04,.3,.06,.46,.06h29.32c4.66,0,5.63-4.7,3.71-5.13-8.64-1.91-14.76-4.45-17.43-6.96-.5-.44,.01-.77-.52-2.13Z" style="fill:#263238;"></path><path d="M310.17,446.95c.39-.28,.62-.73,.63-1.21,.03-.26-.08-.51-.3-.65-1.16-.82-5.79,1.34-6.31,1.59-.06,.02-.1,.07-.12,.12-.04,.11,.02,.22,.12,.26,1.14,.27,2.3,.42,3.47,.45,.88,.08,1.76-.12,2.51-.57Zm.04-1.51c.09,.06,.14,.17,.12,.28-.02,.35-.19,.67-.46,.88-1.05,.79-3.59,.45-4.95,.19,1.92-.85,4.65-1.8,5.29-1.35Z" style="fill:#90CAF9;"></path><path d="M304.35,447.12c1.39-.58,4.3-2.86,4.14-4.07-.02-.25-.21-.56-.83-.64-2.54-.29-3.62,4.26-3.62,4.46-.03,.08,0,.16,.06,.22,.05,.01,.1,.01,.14,0l.11,.04Zm3.23-4.34c.47,.05,.47,.22,.47,.28,.13,.74-1.98,2.63-3.49,3.43,.31-1.06,1.24-3.72,2.85-3.72h.17Z" style="fill:#90CAF9;"></path><path d="M301.57,449.22s-.09-.01-.13-.04c-.12-.07-.15-.23-.08-.34,.73-1.16,1.97-1.96,3.32-2.14,.15-.01,.26,.08,.28,.21,.02,.14-.08,.26-.21,.28-1.21,.16-2.32,.88-2.96,1.91-.05,.08-.13,.12-.21,.12Z" style="fill:#90CAF9;"></path><path d="M303.87,450.95s-.09-.01-.13-.04c-.12-.07-.15-.23-.08-.34,.73-1.16,1.97-1.96,3.32-2.14,.15-.01,.26,.08,.28,.21,.02,.14-.08,.26-.21,.28-1.21,.16-2.32,.88-2.97,1.91-.05,.08-.13,.12-.21,.12Z" style="fill:#90CAF9;"></path><path d="M306.73,452.4s-.09-.01-.13-.04c-.12-.07-.15-.23-.08-.34,.73-1.16,1.97-1.96,3.32-2.14,.15,0,.26,.08,.28,.21,.02,.14-.08,.26-.21,.28-1.21,.16-2.32,.88-2.96,1.91-.05,.08-.13,.12-.21,.12Z" style="fill:#90CAF9;"></path></g><polygon points="301.76 439.37 301.58 441.69 289.84 442.05 289.52 439.42 301.76 439.37" style="opacity:.3;"></polygon></g><path d="M235.36,136.63c-1.11,3.96-1.66,8.05-1.63,12.16-.06,4.7,1.63,9.02,.42,13.65-1.42,5.4-3.12,15.02,3.36,18.02,1.69,.67,3.53,.84,5.32,.5,6.31-.8,12.18-3.56,18.45-4.61,7.79-1.25,16.97,2.31,24.32-.8,2.77-1.17,5.39-6.59,5.6-9.85,.25-3.7-3.19-6.35-4.98-9.16-1.32-2.13-4.8-4.82-5.35-7.27-.08-4.98,2.5-8.29,.31-16.73-1.3-4.03-5.11-9.49-9.43-11.14-9.39-3.67-18.71,2.15-18.71,2.15-8.32-.75-15.25,5.26-17.66,13.08Z" style="fill:#263238;"></path><path d="M271.31,174.65l4.78,1.61s6.88,14.72,6.88,20.81-2.91,38.87-2.91,38.87l-42.9-.82-2.34-15.02-3.18-20.37s6.23-11.65,3.67-22.43l2.56-1.39,33.44-1.27Z" style="fill:#263238;"></path><g><path d="M262.8,171.18c-1.39-1.37-1.69-2.46-1.44-4.46,.17-1.54,.66-3.15,1.25-4.71l-2.07-2.23-10.76-9.99c.55,6.95,2.43,18.16-2.86,22.16,0,0-6.44,2.95-9.26,3.81,1.82,1.37,19.21,20.26,29.61,18.98,9.45-1.16,5.39-18.96,3.75-21.64-2.73-.73-5.66-1.45-8.22-1.92Z" style="fill:#eec1bb;"></path><path d="M261.39,167.61c-2.95-.68-7.22-2.63-7.94-6-.3-1.39-.34-2.76-.26-3.68l8.83,5.47c-.1,1.32-.82,2.32-.62,4.21Z" style="opacity:.2;"></path><path d="M245.44,138.76c1.46,10.56,1.86,15.06,7.59,20.37,8.62,7.99,21.16,4.59,22.86-6.03,1.53-9.56-1.12-25.23-11.74-29.21-10.46-3.92-20.16,4.3-18.7,14.87Z" style="fill:#eec1bb;"></path><path d="M258.98,142.35c.02,1,.6,1.84,1.3,1.88,.7,.04,1.25-.73,1.23-1.73-.02-1-.6-1.84-1.3-1.88-.7-.04-1.25,.73-1.23,1.73Z" style="fill:#263238;"></path><path d="M257.32,138.65c.14,0,.27-.04,.37-.14,1.55-1.6,3.42-1.18,3.44-1.17,.28,.06,.54-.11,.59-.39,.05-.28-.14-.56-.42-.63-.1-.02-2.44-.56-4.37,1.43-.19,.2-.18,.53,.03,.74,.1,.1,.23,.16,.36,.16Z" style="fill:#263238;"></path><path d="M272.73,135.63c.12-.04,.23-.13,.28-.25,.12-.25,0-.55-.27-.68-2.69-1.27-4.77-.12-4.86-.07-.25,.14-.32,.45-.16,.69,.16,.24,.49,.32,.74,.19,.08-.05,1.71-.91,3.85,.1,.14,.07,.29,.07,.42,.03Z" style="fill:#263238;"></path><path d="M266.93,140.68s1.84,3.89,3.83,6.28c.35,.42,.17,1.06-.33,1.27-1.29,.54-2.84,.18-2.84,.18l-.66-7.73Z" style="fill:#d8847c;"></path><path d="M260,140.59l2.46-.48s-1.74,1.77-2.46,.48Z" style="fill:#263238;"></path><path d="M269.95,141.66c.02,1,.6,1.84,1.3,1.88,.7,.04,1.25-.73,1.23-1.73-.02-1-.6-1.84-1.3-1.88-.7-.04-1.25,.73-1.23,1.73Z" style="fill:#263238;"></path><path d="M270.97,139.9l2.46-.48s-1.74,1.77-2.46,.48Z" style="fill:#263238;"></path><path d="M265.53,153.25c-1.92,0-3.79-1.07-4.75-2.73-.07-.12-.03-.27,.09-.34,.12-.07,.27-.03,.34,.09,.93,1.61,2.79,2.6,4.64,2.47,.13-.02,.26,.09,.27,.23,0,.14-.09,.26-.23,.27-.12,0-.24,.01-.36,.01Z" style="fill:#263238;"></path></g><path d="M241.87,122.92c-1.34-1.46-2.34-3.24-2.89-5.15,1.8,1.82,4.31,2.94,6.87,3.06-2.1-1.94-2.25-5.56-.45-7.77,1.81-2.21,5.24-2.82,7.78-1.51s4.07,5.04,3.72,7.88c-.35,2.84-1.4,7.38-7.55,7.52-5.07,.92-10.59-1.97-12.71-6.67,1.49,1.29,3.31,2.21,5.23,2.65Z" style="fill:#263238;"></path><path d="M248.84,155.92c-10.35-6.73-10.02-32.51,8.51-34.02s18.59,20.77,18.59,20.77c-3.2-20.62-21.39-13.25-21.39-13.25,3.56,8.21-3.66,13.6-3.66,13.6-2.57,5.62-2.05,12.9-2.05,12.9Z" style="fill:#263238;"></path><path d="M242.63,147.56c1.35,2.12,3.45,3.39,5.34,3.77,2.84,.57,4.08-4.01,2.99-6.78-.98-2.49-3.82-4.04-6.52-3.36-2.67,.67-3.36,3.95-1.81,6.37Z" style="fill:#eec1bb;"></path><path d="M247.3,148.69s-.04,0-.06,0c-1.72-.39-2.51-1.29-2.87-1.97-.43-.8-.4-1.55-.23-1.98,.34-.87,1.4-1.55,2.44-1.16,.13,.05,.2,.19,.15,.32-.05,.13-.19,.2-.32,.15-.75-.28-1.55,.23-1.8,.87-.12,.31-.14,.91,.21,1.57,.31,.59,1.01,1.37,2.54,1.72,.13,.03,.22,.16,.19,.3-.03,.12-.13,.19-.24,.19Z" style="opacity:.2;"></path><path d="M246.8,157.07c-1.81,0-3.39-1.34-3.65-3.18-.28-2.01,1.13-3.88,3.15-4.16,2.02-.28,3.88,1.13,4.16,3.15,.28,2.01-1.13,3.88-3.15,4.16-.17,.02-.34,.04-.51,.04Zm0-7.12c-.16,0-.31,.01-.47,.03-1.88,.26-3.19,2-2.93,3.88,.26,1.88,2,3.19,3.88,2.93,1.88-.26,3.19-2,2.93-3.88-.24-1.72-1.71-2.96-3.4-2.96Z" style="fill:#90CAF9;"></path><g><path d="M222.66,271.58c.97-27.97,14.77-37.23,14.77-37.23h42.77c1.6,6.29,3.79,17.33,5.81,24.49l19.83,86.9c.54,2.04,.87,4.12,.99,6.22l4.07,87.62-28.63-.18c-.96-2.5-6.65-56.49-9.58-81.09-3.91-13.41-7.15-25.35-9.49-35.95l.43,39.09,1.53,77.45-26.45-.31c-9.43-60.33-9.1-96.86-12.57-130.35-1.29-12.42-3.82-27.17-3.49-36.65Z" style="fill:#90CAF9;"></path><path d="M266.15,284.89c-1.62,12.43-2.54,24.94-2.74,37.47,2.34,10.6,5.38,22.54,9.28,35.95-.37-25.13-6.55-73.42-6.55-73.42Z" style="fill:#2e353a; isolation:isolate; opacity:.2;"></path></g><g><path d="M268.69,173.59s.4,7.52,2.01,8.83c1.61,1.31,2.2-1.59,2.2-1.59,0,0-.46,3.23,.89,3.61,1.62,.45,2.22-2.59,2.22-2.59,0,0-.26,2.66,.96,2.91,1.27,.27,2.2-3.12,2.2-3.12,0,0,.17,1.9,1.12,1.6,.95-.3,3.06-7.45,2.25-9.92-.81-2.47-10.14-4.46-12.21-4.95-2.41-.57-5.19,2.13-5.95,3.09l4.31,1.89v.22Z" style="fill:#ebb373;"></path><path d="M273.05,180.87h0l.52-5.69c0-.08-.06-.15-.14-.16-.09,0-.16,.05-.17,.12l-.52,5.68c0,.08,.06,.15,.14,.16,.08,0,.15-.04,.17-.11Z" style="opacity:.2;"></path><path d="M276.2,181.73h0l.94-5.41c.01-.08-.05-.15-.13-.16-.09-.02-.15,.03-.18,.11l-.94,5.41c-.01,.08,.05,.15,.13,.16,.08,.02,.16-.03,.18-.11Z" style="opacity:.2;"></path><path d="M279.35,181.5l.81-4c.02-.07-.04-.15-.13-.17-.08-.02-.17,.03-.18,.1l-.81,4c-.02,.07,.04,.15,.13,.17s.17-.03,.18-.1Z" style="opacity:.2;"></path></g><path d="M304.56,260.7s3.2,1.81,3.93,4.66-.07,1.48,.32,3.64c.39,2.16,.18,3.75-.88,2.51s-2.32-2.25-3.17-1.33c-.85,.91-3.04,10.8-4.36,11.94-1.32,1.14-1.51-.63-1.51-.63,0,0-.61,2.48-1.71,2.52-.28,0-.96-.41-.87-1.58,.21-2.64,.96-8.16,.96-8.16-.04,.32-1.46,7.07-1.81,8.05-.46,1.29-1.36,1.67-2.13,1.39-1.1-.4,.37-8.82,.18-9.22,0,0,.61,4.72-.8,5.24-1.41,.52-1.77-4.69-1.05-7.85,.57-2.5,.76-4.72,1.73-7.15,1.19-3,2.69-4.77,5.83-4.96,3.14-.19,5.34,.95,5.34,.95Z" style="fill:#895555;"></path><g><path d="M303.75,271.36s-6.43,.55-7.52,1.96c-1.08,1.41,1.42,1.84,1.42,1.84,0,0-2.78-.3-3.07,.86-.35,1.4,2.28,1.83,2.28,1.83,0,0-2.28-.15-2.47,.9-.19,1.09,2.73,1.8,2.73,1.8,0,0-1.63,.2-1.34,1,.28,.81,6.47,2.42,8.56,1.66,2.09-.76,3.92-8.77,3.91-10.6,0-.52-.17-1.42-2.25-2.64-.44-.26-1-.14-1.29,.27l-.77,1.09-.19,.02Z" style="fill:#eec1bb;"></path><path d="M297.64,275.29h.01l4.88,.3c.07,0,.12-.05,.13-.13,0-.07-.04-.14-.11-.14l-4.88-.29c-.07,0-.12,.05-.13,.13,0,.07,.04,.13,.1,.14Z" style="opacity:.2;"></path><path d="M296.98,278.01h0l4.66,.66c.06,0,.13-.04,.14-.12,.01-.07-.03-.13-.1-.15l-4.66-.65c-.06,0-.13,.04-.14,.12-.01,.07,.03,.14,.1,.15Z" style="opacity:.2;"></path><path d="M297.27,280.71l3.45,.59c.06,.01,.13-.04,.14-.11,.01-.07-.03-.14-.09-.15l-3.45-.59c-.06-.01-.13,.04-.14,.11-.01,.07,.03,.14,.09,.15Z" style="opacity:.2;"></path></g><g><g><path d="M233.19,176.97c-.54,.36-3.66,.98-8.32,6.74-4.18,5.16-24.08,25.66-23.43,32.85,.58,6.43,26.67,27.08,26.67,27.08l4.86-5.97-16.32-20.97,12.14-13.52,4.41-26.2Z" style="fill:#eec1bb;"></path><path d="M231.78,238.53s3.89-5.48,5.55-5.84c1.66-.36,9.23,.58,9.37,1.66,.14,1.08-1.01,1.22-1.01,1.22l1.87,2.17s0,.65-.87,.79c0,0-.07,1.59-.94,1.66s-4.25-1.08-4.25-1.08l2.81,1.95s.43,.72-1.73,.5c-2.16-.22-2.92-1.3-2.92-1.3,0,0-5.01,4.25-7.46,4.25s-4.11-.87-4.11-.87l3.68-5.12Z" style="fill:#eec1bb;"></path></g><path d="M237.29,176.4s-5.68-1.7-11.2,3.43c-5.19,4.83-14.21,15.58-14.21,15.58l12.95,14.71,12.26-8.72,.2-25Z" style="fill:#263238;"></path></g></g><g><path d="M156.04,234.35c-1.23-1.12-2.96-1.46-4.6-1.72-12.27-1.99-24.75-2.73-37.17-2.18l-2.28,.72c-1.52-1.22-3.85-.91-5.46,.2-1.61,1.11-2.65,2.84-3.65,4.52-8.61,14.53-16.94,29.28-23.62,44.79-1.55,3.59-3.02,7.63-1.7,11.31,1.54,4.29,6.26,6.44,10.58,7.91,14.11,4.79,28.91,7.2,43.64,9.47,3.58,.55,7.42,1.06,10.68-.52,4.56-2.21,6.4-7.66,7.64-12.58,4.53-17.97,7.17-36.42,7.79-54.94,.08-2.49,0-5.31-1.84-6.99Z" style="fill:#263238;"></path><g><polygon points="137.93 449.39 148.24 450.4 155.85 424.3 140.17 422.59 137.93 449.39" style="fill:#b97964;"></polygon><g><path d="M149.73,445.85h-3.68c-.83,0-1.6,.42-2.1,1.09-2.12,2.9-3.72,1.8-6.03-.92-1.47-.17-1.86,1.51-1.98,1.97l-2.75,10.01c-.24,.84,.24,1.71,1.08,1.95,.15,.04,.3,.06,.46,.06h29.16c4.64,0,5.6-4.67,3.69-5.11-8.59-1.9-14.68-4.43-17.33-6.93-.49-.44,.01-.77-.52-2.12Z" style="fill:#263238;"></path><path d="M157.72,448.7c.39-.28,.62-.72,.62-1.2,.03-.26-.08-.51-.3-.65-1.15-.82-5.76,1.33-6.27,1.59-.06,.02-.1,.07-.12,.12-.04,.11,.02,.22,.12,.26,1.13,.27,2.29,.42,3.45,.44,.87,.08,1.75-.11,2.5-.56Zm.04-1.5c.09,.06,.14,.17,.12,.28-.02,.34-.19,.66-.46,.88-1.05,.78-3.57,.44-4.93,.19,1.91-.84,4.63-1.79,5.26-1.35Z" style="fill:#90CAF9;"></path><path d="M151.92,448.87c1.38-.58,4.28-2.85,4.12-4.05-.02-.25-.2-.55-.83-.64-2.52-.29-3.6,4.24-3.6,4.43-.02,.08,0,.16,.06,.22,.05,.01,.1,.01,.14,0l.11,.04Zm3.21-4.31c.47,.05,.47,.22,.47,.28,.13,.73-1.97,2.62-3.47,3.41,.31-1.06,1.24-3.7,2.84-3.7h.17Z" style="fill:#90CAF9;"></path><path d="M149.16,450.96s-.09-.01-.13-.04c-.12-.07-.15-.23-.08-.34,.72-1.15,1.96-1.95,3.3-2.13,.13-.01,.26,.08,.28,.21s-.08,.26-.21,.28c-1.2,.16-2.3,.87-2.95,1.9-.05,.08-.13,.12-.21,.12Z" style="fill:#90CAF9;"></path><path d="M151.45,452.68s-.09-.01-.13-.04c-.12-.07-.15-.23-.08-.34,.72-1.15,1.96-1.95,3.3-2.13,.13-.01,.26,.08,.28,.21s-.08,.26-.21,.28c-1.2,.16-2.3,.87-2.95,1.9-.05,.08-.13,.12-.21,.12Z" style="fill:#90CAF9;"></path><path d="M154.29,454.12s-.09-.01-.13-.04c-.12-.07-.15-.23-.08-.35,.72-1.15,1.96-1.94,3.3-2.13,.13-.01,.26,.08,.28,.21,.02,.14-.08,.26-.21,.28-1.2,.16-2.3,.87-2.95,1.9-.05,.08-.13,.12-.21,.12Z" style="fill:#90CAF9;"></path></g><polygon points="151.83 438.1 150.89 441.3 138.76 439.43 138.98 436.81 151.83 438.1" style="opacity:.3;"></polygon></g><g><polygon points="77.91 450.22 88.22 451.23 95.84 425.13 80.16 423.42 77.91 450.22" style="fill:#b97964;"></polygon><g><path d="M89.71,446.68h-3.68c-.83,0-1.6,.42-2.1,1.09-2.12,2.9-3.72,1.8-6.03-.92-1.47-.17-1.86,1.51-1.98,1.97l-2.75,10.01c-.24,.84,.24,1.71,1.08,1.95,.15,.04,.3,.06,.46,.06h29.16c4.64,0,5.6-4.67,3.69-5.11-8.59-1.9-14.67-4.43-17.33-6.93-.49-.44,.01-.76-.52-2.12Z" style="fill:#263238;"></path><path d="M97.7,449.53c.39-.28,.62-.72,.62-1.2,.03-.26-.08-.51-.3-.65-1.15-.82-5.76,1.33-6.27,1.59-.06,.02-.1,.07-.12,.12-.04,.11,.02,.22,.12,.26,1.13,.27,2.29,.42,3.45,.44,.87,.08,1.75-.11,2.5-.56Zm.04-1.5c.09,.06,.14,.17,.12,.28-.02,.34-.19,.66-.46,.88-1.05,.78-3.57,.44-4.93,.19,1.91-.84,4.63-1.79,5.26-1.35Z" style="fill:#90CAF9;"></path><path d="M91.91,449.69c1.38-.58,4.28-2.85,4.12-4.05-.02-.25-.2-.55-.83-.64-2.52-.29-3.6,4.24-3.6,4.43-.02,.08,0,.16,.06,.22,.05,.01,.1,.01,.14,0l.11,.04Zm3.21-4.31c.47,.05,.47,.22,.47,.28,.13,.73-1.97,2.62-3.47,3.41,.31-1.06,1.24-3.7,2.84-3.7h.17Z" style="fill:#90CAF9;"></path><path d="M89.14,451.78s-.09-.01-.13-.04c-.12-.07-.15-.23-.08-.34,.72-1.15,1.96-1.94,3.3-2.13,.13-.01,.26,.08,.28,.21,.02,.14-.08,.26-.21,.28-1.2,.16-2.3,.87-2.95,1.9-.05,.08-.13,.12-.21,.12Z" style="fill:#90CAF9;"></path><path d="M91.43,453.51s-.09-.01-.13-.04c-.12-.07-.15-.23-.08-.34,.72-1.15,1.96-1.95,3.3-2.13,.13-.01,.26,.08,.28,.21,.02,.14-.08,.26-.21,.28-1.2,.16-2.3,.87-2.95,1.9-.05,.08-.13,.12-.21,.12Z" style="fill:#90CAF9;"></path><path d="M94.28,454.95s-.09-.01-.13-.04c-.12-.07-.15-.23-.08-.34,.72-1.15,1.96-1.94,3.3-2.13,.13-.01,.26,.08,.28,.21,.02,.14-.08,.26-.21,.28-1.2,.16-2.3,.87-2.95,1.9-.05,.08-.13,.12-.21,.12Z" style="fill:#90CAF9;"></path></g><polygon points="91.81 438.93 90.88 442.13 78.75 440.26 78.97 437.64 91.81 438.93" style="opacity:.3;"></polygon></g><path d="M157.56,251.26s-7.57,7.99-22.41,8.13c-14.84,.14-31.48-8.51-31.48-8.51l1.86-3.19,42.73,4.66,8.18-4.66,1.12,3.57Z" style="isolation:isolate; opacity:.2;"></path><g><g><path d="M158.86,255.85s9.02,36.94,13.09,69.81c1.24,10.02,1.48,23.41-.72,33.28l-16.47,81.88-20.73-2.08c3.26-35.31,7.8-78.87,9.1-97.4l-23.82-74.14,39.55-11.35Z" style="fill:#90CAF9;"></path><path d="M91.23,347.93c.47-2.04,1.22-6.19,2.14-11.66-.03,0-.06-.01-.09-.02,.67-7.24,1.92-40.79,4.21-62.2,1.76-13.63,5.24-22.86,8.75-27.38,.18-.23,.35-.44,.5-.63,.58-.73,.94-1.13,.94-1.13,.67,.17,1.33,.32,1.99,.47,.25,.05,.49,.11,.74,.16,24.77,5.18,44.44-2.24,44.44-2.24,2.28,5.63,6.12,18.55,7.78,31.01-2.59,2.84-13.96,6.53-27.01,8.98l-3.72,16.83c-1.96,10.43-4.47,20.66-6.61,29.88l-2.23,10.09c-.14,.66-.27,1.32-.39,1.96-1.13,5.8-28.07,99.27-28.07,99.27l-17.55-1.03s7.84-64.69,14.19-92.34Z" style="fill:#90CAF9;"></path></g><path d="M131.01,304c-.07,.34,8.68-31.46,8.68-31.46,0,0,4.36,24.04-6.03,40.49l-2.66-9.03Z" style="isolation:isolate; opacity:.2;"></path><polygon points="155.84 435.48 154.77 440.81 134.04 438.73 134.58 432.95 155.84 435.48" style="isolation:isolate; opacity:.2;"></polygon><polygon points="94.6 441.3 96.08 436.16 77.71 434.95 77.05 440.27 94.6 441.3" style="isolation:isolate; opacity:.2;"></polygon></g><g><path d="M99.52,200.63l-6.45-21.98c4.08-6.08,24.25-10.76,24.25-10.76l13.29,.73s5.11,1.14,9.48,2.57c5.84,1.9,9,3.44,10.39,6.68,0,0,2.44,7.18,.97,21.97-.4,4.07-1.32,25.53-.19,32.52l8.26,16.15c-24.28,18.91-55.37,0-55.37,0,1.09-3.34,3.49-10.74,3.98-14-.36-4.16-1.52-6.9-3.29-14.19-.34-1.41-4.74-18.33-5.33-19.69Z" style="fill:#263238;"></path><path d="M99.52,200.63l-6.45-21.98c4.08-6.08,24.25-10.76,24.25-10.76l13.29,.73s5.11,1.14,9.48,2.57c5.84,1.9,9,3.44,10.39,6.68,0,0,2.44,7.18,.97,21.97-.4,4.07-1.32,25.53-.19,32.52l8.26,16.15c-24.28,18.91-55.37,0-55.37,0,1.09-3.34,3.49-10.74,3.98-14-.36-4.16-1.52-6.9-3.29-14.19-.34-1.41-4.74-18.33-5.33-19.69Z" style="fill:#fff; opacity:.7;"></path><polygon points="88.08 196.22 83.66 238.8 86.4 275.66 94.57 276.17 98.12 237.86 102.69 203.71 88.08 196.22" style="fill:#b97964;"></polygon><path d="M94.91,176.58c-4.95,2.12-11.24,26.88-11.24,26.88l19.56,5.05s6.4-18.36,4.28-24.94c-1.81-5.56-6.32-9.68-12.6-6.98Z" style="fill:#263238;"></path><path d="M94.91,176.58c-4.95,2.12-11.24,26.88-11.24,26.88l19.56,5.05s6.4-18.36,4.28-24.94c-1.81-5.56-6.32-9.68-12.6-6.98Z" style="fill:#fff; opacity:.7;"></path><path d="M94.57,276.17c.23,.24,1.81,3.75,2.26,5.1,.45,1.35,.15,11.95-1.13,11.32-1.28-.64-1.51-1.12-1.74-3.43-.23-2.31-.23-4.46-.83-3.9-.6,.56-1.74,7.33-1.13,9.24,.6,1.91,1.81,5.34,.6,6.22-1.21,.88-2.04-.56-2.04-.56,0,0-.15,1.91-1.21,1.2-1.06-.72-5.13-5.74-5.58-8.05-.45-2.31,1.78-12.08,2.03-14.51,.07-.73,1.07-5.41,1.07-5.41l8.11-1.72-.42,4.51Z" style="fill:#b97964;"></path><g><path d="M100.75,176.19s1.28,6.85,.13,8.39c-1.16,1.53-2.33-.95-2.33-.95,0,0,1.12,2.81-.01,3.45-1.35,.76-2.57-1.84-2.57-1.84,0,0,.82,2.33-.22,2.83-1.08,.52-2.66-2.33-2.66-2.33,0,0,.27,1.75-.66,1.69-.92-.06-4.38-6.04-4.2-8.43,.19-2.4,8.15-6.23,9.91-7.12,2.05-1.04,4.33-.64,5.23,.06l-2.66,4.07,.04,.2Z" style="fill:#ebb373;"></path><path d="M98.42,183.69h0l-1.71-5c-.02-.07,.02-.14,.09-.17,.08-.03,.16,0,.18,.07l1.71,4.99c.02,.07-.02,.14-.09,.17-.07,.03-.15,0-.17-.06Z" style="opacity:.2;"></path><path d="M95.77,185.15h0l-2.03-4.67c-.03-.06,0-.14,.08-.18,.07-.03,.14-.01,.18,.06l2.03,4.66c.03,.07,0,.14-.08,.18-.07,.03-.15,0-.18-.06Z" style="opacity:.2;"></path><path d="M92.88,185.63l-1.6-3.42c-.03-.06,0-.14,.08-.18,.07-.03,.16,0,.19,.05l1.6,3.42c.03,.06,0,.14-.08,.18s-.16,0-.19-.05Z" style="opacity:.2;"></path></g><polygon points="102.04 208.5 103.23 208.5 106.8 197.96 105.22 221.83 101.93 209.34 102.04 208.5" style="isolation:isolate; opacity:.2;"></polygon></g><g><path d="M127.54,238.53c-6.01-4.13-13.5-6.07-20.76-5.39l-3.56,9.34c9.94,8.97,22.11,10.17,35.49,9.75,1.88-6.93-5.16-9.57-11.17-13.7Z" style="fill:#263238;"></path><path d="M155.53,232.52c-.98-1.84-2.98-3.3-5.04-2.98-1.53,.24-2.76,1.37-3.81,2.5-4.2,4.5-7.44,9.9-9.43,15.72l.78,4.47c1.38-.57,2.77-1.14,4.15-1.7,3.92-1.61,7.97-3.3,10.9-6.37,2.93-3.06,4.45-7.9,2.45-11.64Z" style="fill:#263238;"></path><circle cx="139.03" cy="248.52" r="5.62" style="fill:#263238;"></circle><path d="M141.47,270.6c-.47-6.67-.93-13.34-1.4-20.02l-2.61,1.7c-8.18,11.96-11.77,26.97-9.87,41.34,3.49,.6,7.04,.83,10.58,.68l-2.99-6.32c3.08-1.2,5.12-4.29,5.93-7.5,.81-3.21,.59-6.58,.36-9.88Z" style="fill:#263238;"></path><path d="M152.82,277.64c1.49-2.04,1.77-4.72,1.61-7.24-.5-8.01-5.14-15.64-12.01-19.79l-1.12-.88c3.99,12.04,3.21,25.06,2.39,37.72,2.68-.54,5.36-1.09,8.05-1.63-.83-1.66-1.67-3.57-1.02-5.3,.42-1.12,1.39-1.92,2.09-2.88Z" style="fill:#263238;"></path></g><g><path d="M144.33,123.28c1.05-.4,1.63-1.65,1.45-2.76-.17-1.11-.97-2.05-1.95-2.61-.97-.56-2.11-.78-3.23-.88-1.08-.1-2.22-.08-3.19,.42l4.74,13.72c1.06-.47,2.08-1.09,2.85-1.97,.76-.88,1.26-2.03,1.18-3.19-.07-1.16-.78-2.3-1.86-2.73Z" style="fill:#263238;"></path><path d="M143.22,111.96c-1.55-1.07-3.4-1.26-5.18-1.41,1.56-1.58,1.89-4.64,.72-6.65-1.77-3.03-5.56-2.78-8.53-1.79-2.6,.87-5.27,2.19-6.89,4.78-.22-1.56-1.25-2.83-2.46-3.46-1.21-.63-2.57-.7-3.89-.56-2.22,.24-4.44,1.1-6.15,2.8-1.72,1.7-2.87,4.31-2.75,6.98-2.92-1.32-6.54,.14-8.19,3.31-1.65,3.17-1.17,7.7,1.1,10.26-1.18,1.29-1.11,3.22-.42,4.94,.69,1.72,4.47,1.09,6.05,.81l25.49-9.24c3.04,1.85,6.68,.05,9.75-1.74,1.44-.84,3.01-1.86,3.5-3.68,.54-2.04-.59-4.28-2.14-5.36Z" style="fill:#263238;"></path><g><g><path d="M130.82,126.8s8.3,14.96,8.69,19.61c3.18,2.7,5.44-2.78,5.32-10.13-.1-6.02-3.24-12.51-8.44-14.85-7.3-3.28-5.57,5.37-5.57,5.37Z" style="fill:#263238;"></path><g><g><path d="M129.69,169.82c-1.39-1.39-2.02-2.83-1.75-4.85,.18-1.55,.68-3.17,1.28-4.74l-2.07-2.25-10.79-10.13c.51,7,1.76,18.24-3.58,22.24l16.92,13.67v-13.94Z" style="fill:#b97964;"></path><path d="M128.4,165.56c-2.92-1.6-6.17-4.43-5.92-7.81,.12-1.42,.37-2.78,.68-3.65l6.09,7.49c-.43,1.26-.58,2.08-.86,3.98Z" style="opacity:.2;"></path><path d="M113.53,136.68c1.37,10.66,1.72,15.19,7.44,20.59,8.61,8.13,21.27,4.83,23.09-5.85,1.63-9.61-.88-25.43-11.54-29.54-10.5-4.05-20.36,4.14-18.99,14.79Z" style="fill:#b97964;"></path><path d="M128.03,140.44c0,1,.58,1.86,1.29,1.9,.7,.05,1.26-.73,1.26-1.73s-.58-1.86-1.29-1.9c-.7-.05-1.26,.73-1.26,1.73Z" style="fill:#263238;"></path><path d="M138.91,139.5c-.05,.97,.48,1.83,1.17,1.92s1.3-.63,1.35-1.6c.05-.97-.48-1.83-1.17-1.92-.7-.09-1.3,.63-1.35,1.6Z" style="fill:#263238;"></path><path d="M125.18,136.99c.14,0,.27-.04,.37-.14,1.58-1.6,3.46-1.15,3.48-1.15,.28,.07,.55-.1,.6-.38,.05-.28-.14-.57-.42-.64-.1-.02-2.46-.59-4.41,1.4-.19,.2-.18,.53,.03,.75,.1,.1,.23,.16,.36,.17Z" style="fill:#263238;"></path><path d="M141.76,134.8c.12-.04,.23-.13,.29-.25,.12-.25,0-.56-.27-.69-2.7-1.3-4.8-.17-4.89-.12-.25,.14-.32,.45-.16,.69,.16,.24,.49,.33,.74,.19,.08-.05,1.73-.9,3.87,.14,.14,.07,.29,.07,.42,.03Z" style="fill:#263238;"></path><path d="M110.61,145.51c1.34,2.15,3.44,3.45,5.34,3.85,2.86,.61,4.15-4,3.08-6.8-.96-2.52-3.81-4.11-6.54-3.45-2.69,.65-3.42,3.94-1.89,6.4Z" style="fill:#b97964;"></path><path d="M135.16,138.83s1.82,3.94,3.8,6.37c.35,.42,.16,1.07-.34,1.28-1.3,.53-2.86,.15-2.86,.15l-.59-7.79Z" style="fill:#a24e3f;"></path></g><path d="M129.07,138.67l2.48-.46s-1.43,1.77-2.48,.46Z" style="fill:#263238;"></path><path d="M140,137.9l2.5-.32s-1.53,1.68-2.5,.32Z" style="fill:#263238;"></path></g><path d="M110.64,130.84c-1.45,2.1,1.44,8.18,1.44,8.18,0,0,5.13-1.53,5.41,6.2,1.89,.31,4.02-6.9,3.71-14.15-.38-4.1-7.99-3.93-10.55-.23Z" style="fill:#263238;"></path><path d="M115.31,146.7s-.04,0-.06,0c-1.73-.41-2.52-1.32-2.88-2.01-.42-.81-.39-1.56-.21-2,.35-.87,1.42-1.54,2.47-1.14,.13,.05,.19,.19,.14,.32-.05,.13-.19,.19-.32,.14-.76-.29-1.57,.22-1.82,.86-.13,.32-.15,.92,.19,1.58,.31,.6,1.01,1.39,2.55,1.76,.13,.03,.22,.17,.19,.3-.03,.11-.13,.19-.24,.19Z" style="opacity:.2;"></path></g><g><path d="M136.73,150.11c-.8,1.18-1.79,3.48-1.79,3.48-.22-.05-.45-.1-.67-.17-3.02-.78-4.17-2.13-4.52-3.41-.19-.7-.14-1.37-.02-1.91,.13-.62,.36-1.03,.36-1.03,1.36,1.37,4.12,2.31,5.62,2.75,.62,.19,1.03,.28,1.03,.28Z" style="fill:#263238;"></path><path d="M135.71,149.83l-.55,1.01c-2.85-.74-4.75-1.64-5.42-2.73,.13-.62,.36-1.03,.36-1.03,1.36,1.37,4.12,2.31,5.62,2.75Z" style="fill:#fff;"></path><path d="M134.28,153.43c-3.02-.78-4.17-2.13-4.52-3.41,1.02,.3,2.22,.78,3.19,1.53,.74,.56,1.13,1.24,1.34,1.88Z" style="fill:#c15854;"></path></g><path d="M140.88,124.89c-2.26-4.7-11.48-9.07-22.08-4.53-9.57,4.09-14.08,15.75-7.16,16.27,6.92,.52,18.5-5.46,18.5-5.46l10.73-6.28Z" style="fill:#263238;"></path></g><path d="M116.75,153.43s-10.57-8.19-11.75-19.52c0,0,4.51-14.4,24.07-15.46l4.45,.88s-19.88,11.04-16.77,34.09Z" style="fill:#90CAF9;"></path><path d="M129.64,118.54s5.72-2.51,9.72,3.08c4.01,5.58,5.15,12.29,5.15,12.29,0,0-1.5-7.51-5.61-9.83-4.11-2.31-7.65-3.61-7.65-3.61l-1.62-1.93Z" style="fill:#90CAF9;"></path><polygon points="128.01 123.62 128.64 118.49 127.15 118.6 126.26 125.16 128.01 123.62" style="opacity:.3;"></polygon><path d="M106.27,131.17s1.5,10.18,10.31,19.68l-.11-4.09s-5.92-9.24-8.57-18.07c-.61,.76-1.16,1.58-1.63,2.48Z" style="opacity:.3;"></path><g><path d="M110.97,125.35c.74,2.82,2.58,8.26,6.8,13.97,.35-1.16,.75-2.27,1.2-3.33-1.65-2.88-4.11-7.52-5.88-12.35-.77,.56-1.48,1.13-2.13,1.71Z" style="opacity:.3;"></path><path d="M120.15,120.08c-.91,.3-1.76,.64-2.57,1,.75,2.4,2.09,5.77,4.36,9.43,.63-.94,1.28-1.83,1.94-2.65-1.18-2.19-2.54-4.9-3.73-7.78Z" style="opacity:.3;"></path></g><path d="M138.65,123.93l-1.75-4.81s1.23,1.01,1.6,1.43c.37,.42,1.53,4.33,1.51,4.31-.02-.02-1.36-.93-1.36-.93Z" style="opacity:.3;"></path><path d="M128.6,118.81s2.48-5.48,5.2-3.79c2.72,1.69,6.76,9.84,3.94,9.51-2.82-.33-8.96,.62-9.73-.91-.77-1.53,.59-4.81,.59-4.81Z" style="fill:#90CAF9;"></path><path d="M128.53,124.08l6.33-8.16s1.48,1.89,1.59,2.06c.11,.17-4.61,6.56-4.61,6.56,0,0-2.78,0-3.31-.46Z" style="opacity:.3;"></path></g></g><g><g><path d="M320.27,450.33c-1.43-1.65-6.24-75.14-5.55-81.67,.69-6.53-.07-26.37-.07-26.37h23.08s-1.03,23.28,0,32.21c1.03,8.93-8.86,76.92-8.86,76.92l-8.6-1.09Z" style="fill:#895555;"></path><polygon points="319.61 450.25 317 415.67 333.77 415.67 329.35 450.5 319.61 450.25" style="fill:#90CAF9;"></polygon><polygon points="319.61 450.25 317 415.67 333.77 415.67 329.35 450.5 319.61 450.25" style="fill:#fff; opacity:.7;"></polygon><g><path d="M312.06,458.59h19.68s.43-.83-.06-3.03c-.07-.34-.17-.72-.3-1.13,0-.02-.01-.04-.02-.06-.18-.61-.4-1.36-.62-2.17-.9-3.3-1.96-7.6-1.96-7.6,0,0-3.27-7.01-7.11-5.26-3.36,1.54-2.56,5.93-2.56,5.93,0,0-.33,2.58-2.88,4.86-1.58,1.41-3.14,2.49-3.9,4.24-.14,.33-.25,.67-.33,1.05,0,.05-.02,.09-.02,.14-.16,.84-.15,1.83,.08,3.03Z" style="fill:#263238;"></path><path d="M331.68,455.57c.49,2.2,.06,3.03,.06,3.03h-19.68c-.23-1.2-.24-2.18-.08-3.03h19.7Z" style="fill:#e0e0e0;"></path><path d="M319.9,446.38c1.11-.86,2.56-.75,3.56,.22,.27,.26,.68-.15,.41-.41-1.24-1.21-3.02-1.28-4.38-.22-.29,.23,.12,.64,.41,.41h0Z" style="fill:#fff;"></path><path d="M319.35,448.22c1.11-.86,2.56-.75,3.56,.22,.27,.26,.68-.15,.41-.41-1.24-1.21-3.02-1.28-4.38-.22-.29,.23,.12,.64,.41,.41h0Z" style="fill:#fff;"></path><path d="M318.79,449.91c1.11-.86,2.56-.75,3.56,.22,.27,.26,.68-.15,.41-.41-1.24-1.21-3.02-1.28-4.38-.22-.29,.23,.12,.64,.41,.41h0Z" style="fill:#fff;"></path></g><polygon points="317.22 421.36 333.04 421.45 332.57 425.08 317.65 424.79 317.22 421.36" style="fill:#90CAF9;"></polygon><polygon points="317.81 427.93 317.81 426.45 332.36 426.79 332.18 428.17 317.81 427.93" style="fill:#90CAF9;"></polygon></g><g><path d="M368.54,328.35c0,1.15,12.28,31.85,12.28,31.85,0,0,.77,26.11,2.69,36.65,1.03,5.64,5.37,19.54,9.1,31.29,3.25,10.23,6.02,18.82,6.02,18.82l12.97-2.27s-7.05-59.56-7.05-71.07-10.68-36.25-10.68-36.25l-25.33-9.03Z" style="fill:#895555;"></path><polygon points="397.6 443.89 388.2 414.27 407.68 409.84 411.59 446.02 397.6 443.89" style="fill:#90CAF9;"></polygon><polygon points="397.6 443.89 388.2 414.27 407.68 409.84 411.59 446.02 397.6 443.89" style="fill:#fff; opacity:.7;"></polygon><g><path d="M399,459.21l8.05-.06s1.62-.82,2.58-.72c.95,.1,4.27,.67,4.27,.67l21.37-.15c-.18-.84-.39-1.59-.64-2.25-.3-.81-.64-1.49-1.03-2.07-1.34-2.02-3.15-2.73-5.12-2.83-2.99-.16-12.46-5.99-12.46-5.99,0,0-3.43-1.1-3.64-4.51-.08-1.28-2.11-2.83-3.07-2.95-1.96-.25-3.03,.92-3.3,2.75l-.31,2.13-4.52-.63s-4.61-2.14-4.37-.03c.14,1.2,.95,6.55,1.47,10.8,.12,.99,.23,1.93,.33,2.75h0c.22,1.82,.38,3.08,.38,3.08Z" style="fill:#263238;"></path><path d="M435.27,458.95l-21.37,.15s-3.32-.57-4.27-.67c-.96-.1-2.58,.72-2.58,.72l-8.05,.06s-.15-1.25-.38-3.08l36,.57c.25,.66,.46,1.41,.64,2.25Z" style="fill:#e0e0e0;"></path><path d="M420.73,447.97c-.1-.09-.25-.1-.37-.03-.53,.33-.97,.8-1.27,1.39-.16,.31,.32,.6,.48,.29,.26-.52,.65-.94,1.11-1.23,.15-.1,.18-.3,.04-.42h0Z" style="fill:#fff;"></path><path d="M419.02,447.04c-.1-.09-.25-.1-.37-.03-.53,.33-.97,.8-1.27,1.39-.16,.31,.32,.6,.48,.29,.26-.52,.65-.94,1.11-1.23,.15-.1,.18-.3,.04-.42h0Z" style="fill:#fff;"></path><path d="M417.26,446.18c-.1-.09-.25-.1-.37-.03-.53,.33-.97,.8-1.27,1.39-.16,.31,.32,.6,.48,.29,.26-.52,.65-.94,1.11-1.23,.15-.1,.18-.3,.04-.42h0Z" style="fill:#fff;"></path></g><polygon points="389.75 419.48 408.2 414.76 408.62 418.53 391.06 423.3 389.75 419.48" style="fill:#90CAF9;"></polygon><polygon points="391.36 424.58 408.75 419.75 408.9 421.11 391.91 426.25 391.36 424.58" style="fill:#90CAF9;"></polygon></g><g><path d="M401.09,342.93c-1.54-14.75-19.71-93.05-19.71-93.05l-25.86,.78-40.91,1.67s-5.72,33.1-4.31,55.38l.75,57.92,30.91,2.01,.91-18.56c1.44-12.47,4.73-45.79,5.75-56.25,.43-2.31,.85-4.64,1.25-6.97,4.06,11.33,19.95,55.91,21.38,62.87,1.65,7.98,4.13,17.61,4.13,17.61l29.16-4.22s-1.91-4.45-3.45-19.2Z" style="fill:#263238;"></path><g style="opacity:.5;"><path d="M370.78,261.59c2.4,7.9,8.83,14.24,16.76,16.55,.43,.12,.25,.79-.18,.67-8.16-2.38-14.77-8.9-17.24-17.04-.13-.43,.54-.61,.67-.18h0Z"></path><path d="M349.19,261.59c.47,6.91,.93,13.83,1.39,20.74,.02,.45,.71,.45,.69,0-.25-3.54-.48-7.1-.71-10.66,1.71,1.32,3.7-.28,4.26-2.04,.91-2.85,.57-6.24-.14-9.1-.11-.43-.78-.25-.67,.18,.5,2.01,.71,4.06,.57,6.12-.07,1.05-.17,2.25-.66,3.21-.55,1.07-1.93,1.97-3.03,1-.12-.1-.26-.11-.37-.06-.21-3.13-.42-6.28-.64-9.41-.02-.45-.71-.45-.69,0Z"></path><path d="M328.87,262.76c.1,9.16-6.95,16.83-16.07,17.55-.44,.03-.43-.65,0-.68,8.75-.69,15.49-8.11,15.39-16.87,0-.44,.68-.44,.68,0h0Z"></path></g></g><g><path d="M412.15,164.15c-.17,.4-17.95,23.72-17.95,23.72l-14.42-21.26s-12.51,13.96-12.03,14.12c.48,.15,18.89,31.56,29.62,24.81,10.73-6.75,21.34-37.29,21.34-37.29l-6.55-4.09Z" style="fill:#895555;"></path><g><path d="M412.18,166.82s-2.72-2.42-2.79-5.36c-.07-2.94-.95-5.27-.85-7.46,.1-2.19,2.02,.13,2.77,1.57,.76,1.43,1.63,3.05,2.66,2.33,1.03-.72,5.52-10.3,7.07-11.14,1.55-.84,1.33,.93,1.33,.93,0,0,1.16-2.3,2.23-2.11,.28,.05,.85,.6,.49,1.73-.8,2.53-2.76,7.77-2.76,7.77,.11-.3,3.01-6.6,3.58-7.49,.74-1.16,1.7-1.35,2.39-.92,.98,.61-2.34,8.54-2.24,8.97,0,0,1.76-4.63,3.25-4.84,1.5-.22,.56,2.75-.79,5.22-1.24,2.26-3.04,7.01-4.53,9.19-1.83,2.69-3.7,4.1-6.81,3.65-3.11-.46-5.01-2.03-5.01-2.03Z" style="fill:#895555;"></path><path d="M419.8,153.79s-.03,0-.04,0c-.07-.02-.1-.1-.08-.16,.69-1.92,1.49-3.85,2.37-5.71,.03-.06,.1-.09,.17-.06,.06,.03,.09,.1,.06,.17-.88,1.86-1.67,3.77-2.36,5.69-.02,.05-.07,.08-.12,.08Z" style="opacity:.3;"></path><path d="M425.45,157.58s-.05,0-.08-.03c-2.1-1.66-4.76-2.72-7.47-2.99-.07,0-.12-.07-.11-.14,0-.07,.05-.12,.14-.11,2.76,.27,5.46,1.35,7.6,3.04,.05,.04,.06,.12,.02,.18-.03,.03-.06,.05-.1,.05Z" style="opacity:.3;"></path><path d="M416.53,164.85s-.03,0-.05,0c-.06-.03-.09-.1-.07-.16,.41-.96,.46-2.09,.13-3.08-.33-.99-1.04-1.88-1.95-2.45-.06-.04-.08-.11-.04-.17,.04-.06,.11-.08,.17-.04,.96,.59,1.72,1.54,2.06,2.58,.35,1.05,.3,2.23-.13,3.25-.02,.05-.07,.08-.12,.08Z" style="opacity:.3;"></path></g><path d="M394.2,187.87s-2.01,3.74-1.43,7.08c0,0-1.18-1.56-1.1-4.26,.08-2.7,1.29-4.66,1.29-4.66l1.25,1.84Z" style="isolation:isolate; opacity:.2;"></path></g><g><path d="M306.64,164.15s-9.65,38.59-10.51,47.45c-.86,8.86-1.06,51.23-1.06,51.23l11.42,.99,4.55-45.71,11.51-51.64-15.91-2.31Z" style="fill:#895555;"></path><path d="M362.2,150.31c-6.67,4.65-7.5,17.74,13.11,45.9l16.35-16.55c-4.24-7.16-7.92-10.67-14.21-19.19-9.93-13.2-15.25-10.16-15.25-10.16Z" style="fill:#90CAF9;"></path><path d="M362.08,150.33c-6.61,4.74-7.27,17.84,13.69,45.73l16.14-16.76c-4.33-7.11-8.05-10.57-14.46-19-10.1-13.07-15.38-9.97-15.38-9.97Z" style="fill:#fff; opacity:.7;"></path><path d="M362.36,149.81c-5.3-.31-26.48-2.35-48.1,1.8l1.26,79.3s-.56,10.5-1.96,21.04c22.61,8.36,55.23,7.67,69.63-.92-.43,.94-10.32-68.9-16.36-100.42-.1-.5-3.95-.77-4.47-.81Z" style="fill:#90CAF9;"></path><path d="M314.76,151.52s-9.01,1.6-11.06,11.81c-1.89,9.4-7.18,30.3-7.18,30.3l21.31,2.64,4.29-24.45-7.36-20.3Z" style="fill:#90CAF9;"></path><path d="M314.76,151.52s-9.01,1.6-11.06,11.81c-1.89,9.4-7.18,30.3-7.18,30.3l21.31,2.64,4.29-24.45c.76-9.58-1.18-16.8-7.36-20.3Z" style="fill:#fff; opacity:.7;"></path><polygon points="373.07 193.09 369.67 167.89 377.38 194.12 375.31 196.21 373.07 193.09" style="isolation:isolate; opacity:.2;"></polygon><polygon points="315.67 196 317.83 196.27 322.12 176.12 320.13 198.73 315.79 199.64 315.67 196" style="isolation:isolate; opacity:.2;"></polygon><rect x="352.94" y="169.2" width="4.99" height="3.36" rx="1.32" ry="1.32" transform="translate(-24.01 63.39) rotate(-9.86)" style="fill:#fff; opacity:.7;"></rect></g><g><path d="M360.13,106.77l1.13,.67c1.33,.03,2.57,1.03,2.88,2.32,.31,1.29-.34,2.75-1.51,3.38-.18,.09-.38,.19-.44,.38-.1,.3,.22,.56,.46,.77,1.19,1.03,1.04,3.08-.03,4.23-1.07,1.15-2.77,1.53-4.34,1.4-.41-4.43,2.23-8.72,1.84-13.15Z" style="fill:#263238;"></path><path d="M326.4,119.24c-1.69,.08-3.37-.96-4.05-2.5-.19-.43-.31-.9-.23-1.36,.21-1.25,1.64-1.82,2.86-2.16-1.36-.33-2.27-1.68-2.53-3.06-.12-.63-.13-1.29,.07-1.9,.34-1.02,1.26-1.77,2.26-2.17,1-.4,2.09-.51,3.16-.61l6.18,19.6c-1.38,.31-2.81,.5-4.21,.26-1.39-.24-2.75-.95-3.53-2.13-.78-1.18-.85-2.86,.02-3.97Z" style="fill:#263238;"></path><path d="M329.86,150.68c5.7-4.86,5.43-18.97,4.41-26.3l16.25,14.09c-.39,.83-.73,1.68-1,2.56-.55,1.56-.69,3.24-.4,4.87,.29,1.35,1.8,5.1,1.8,5.1,0,0,.81,4.2-10.24,4-4.86,.44-10.81-4.32-10.81-4.32Z" style="fill:#895555;"></path><path d="M337.18,131.84c-.97,8.56,7.61,12.71,11.94,14.07-.29-1.63-.15-3.31,.4-4.87l-12.35-9.2Z" style="isolation:isolate; opacity:.2;"></path><g><g><g><g><path d="M331.48,117.98c2.01,10.11,2.93,15.86,8.93,20.36,9.03,6.77,21.09,.59,22.24-9.94,1.03-9.48-2.42-24.43-13.24-27.06-10.66-2.6-19.93,6.53-17.93,16.64Z" style="fill:#895555;"></path><path d="M328.51,105.89c.69-5.8,15.18-7.73,19.61-5.38,.66,.35-7.36,5.64-6.87,5.39l-3.86,1.88c-.64-.05-1.77,.81-2.15,2.77,0,0,2.55,15.57-1.41,20.68-3.9-1.27-4.94-7.43-6.59-10.98-2.46-5.28-5.6-13.06,1.26-14.37Z" style="fill:#263238;"></path><path d="M328.47,127.01c1.19,2.52,3.47,4.25,5.69,4.99,3.33,1.11,4.06-2.37,3.33-5.54-.65-2.86-1.99-6.27-5.43-6-3.39,.26-4.94,3.68-3.58,6.56Z" style="fill:#895555;"></path><path d="M345.6,118.49c.14,1.04,.82,1.81,1.52,1.71,.7-.1,1.16-1.02,1.02-2.06-.14-1.04-.82-1.81-1.52-1.71-.7,.1-1.16,1.02-1.02,2.06Z" style="fill:#263238;"></path><path d="M356.16,117.88c.14,1.04,.82,1.81,1.52,1.71,.7-.1,1.16-1.02,1.02-2.07-.14-1.04-.82-1.81-1.52-1.71-.7,.1-1.16,1.02-1.02,2.06Z" style="fill:#263238;"></path><path d="M353.95,117.71s4.09,4.75,5.46,6.72c-1.32,1.5-3.98,1.23-3.98,1.23l-1.49-7.95Z" style="fill:#6d3939;"></path><path d="M343.61,114.42c.17,.04,.36,0,.5-.13,1.6-1.57,3.43-1.25,3.45-1.24,.27,.05,.54-.12,.6-.39,.06-.27-.12-.52-.39-.58-.1-.02-2.4-.43-4.38,1.52-.2,.19-.2,.51,0,.69,.06,.06,.14,.1,.22,.12Z" style="fill:#263238;"></path></g><path d="M335.69,126.58c-.11,0-.21-.08-.24-.19-.21-.82-.64-1.58-1.24-2.19-.39-.4-1.02-.89-1.81-.97-.7-.08-1.41,.25-1.68,.78-.06,.12-.22,.17-.34,.11-.12-.06-.17-.21-.11-.34,.37-.72,1.27-1.15,2.18-1.05,.93,.1,1.66,.66,2.11,1.12,.67,.68,1.14,1.51,1.37,2.42,.03,.13-.05,.27-.18,.3-.02,0-.04,0-.06,0Z" style="opacity:.2;"></path></g><path d="M361.51,112.85c.09-.03,.17-.09,.24-.17,.17-.22,.13-.53-.1-.69-2.23-1.64-4.42-.86-4.52-.84-.26,.09-.4,.38-.31,.63,.09,.26,.38,.39,.64,.29,.09-.04,1.79-.61,3.57,.7,.14,.1,.32,.12,.47,.07Z" style="fill:#263238;"></path></g><path d="M325.11,101.26c.53-2.45,3.63-3.33,6.08-3.12-.45-2.88,3.23-4.98,5.67-5.17,2.55-.2,3.57,.68,3.57,.68-.19,.06,.6-1.52,1.13-2.17,1.96-2.4,5.37-3.44,8.29-2.53,2.93,.91,5.2,3.72,5.53,6.83,1.4-1.74,4.22-1.99,5.9-.53,1.67,1.46,1.88,4.36,.43,6.05,1.88-.1,3.65,1.64,3.65,3.56,0,1.92-1.79,3.64-3.66,3.53,.13,2.15,.2,4.84,.34,6.99l-3.84-7.53c-1.57-.36-1.94-.99-2.43-2.57-.88,2.14-2.64,2.17-4.91,2.34-2.26,.17-4.57-1.06-5.75-3.05-.93,2.24-2.96,4.08-5.32,4.29-2.37,.21-4.87-1.56-5.14-3.97-1.16,2.22-4.01,3.32-6.32,2.44-2.3-.88-3.76-3.63-3.23-6.08Z" style="fill:#263238;"></path><g><path d="M355.05,129.12c-.87,1.12-1.66,2.31-2.36,3.55-.23-.09-.47-.17-.7-.26-3.18-1.21-4.26-2.82-4.48-4.24-.09-.7-.02-1.41,.21-2.07,.12-.38,.29-.74,.51-1.07,1.3,1.65,4.17,3.01,5.74,3.67,.69,.25,1.08,.43,1.08,.43Z" style="fill:#263238;"></path><path d="M354.02,128.67l-.73,1.03c-2.98-1.15-4.93-2.34-5.53-3.63,.12-.38,.29-.74,.51-1.07,1.31,1.67,4.17,3.01,5.74,3.67Z" style="fill:#fff;"></path><path d="M352.03,132.38c-3.18-1.21-4.26-2.82-4.48-4.24,1.2,.48,2.3,1.17,3.26,2.04,.62,.59,1.05,1.36,1.21,2.2Z" style="fill:#c15854;"></path></g></g></g></g></g></g></svg>
